<?xml version="1.0" encoding="UTF-8" standalone="no"?>
<!-- Created with Inkscape (http://www.inkscape.org/) -->
<svg
   xmlns:dc="http://purl.org/dc/elements/1.1/"
   xmlns:cc="http://creativecommons.org/ns#"
   xmlns:rdf="http://www.w3.org/1999/02/22-rdf-syntax-ns#"
   xmlns:svg="http://www.w3.org/2000/svg"
   xmlns="http://www.w3.org/2000/svg"
   xmlns:sodipodi="http://sodipodi.sourceforge.net/DTD/sodipodi-0.dtd"
   xmlns:inkscape="http://www.inkscape.org/namespaces/inkscape"
   version="1.0"
   width="428.91953"
   height="951.77246"
   id="svg2"
   sodipodi:version="0.32"
   inkscape:version="0.92.5 (2060ec1f9f, 2020-04-08)"
   sodipodi:docname="Asclepius_staff.svg"
   viewBox="0 0 402.11206 892.28665">
  <metadata
     id="metadata9">
    <rdf:RDF>
      <cc:Work
         rdf:about="">
        <dc:format>image/svg+xml</dc:format>
        <dc:type
           rdf:resource="http://purl.org/dc/dcmitype/StillImage" />
      </cc:Work>
    </rdf:RDF>
  </metadata>
  <sodipodi:namedview
     inkscape:window-height="1015"
     inkscape:window-width="1920"
     inkscape:pageshadow="2"
     inkscape:pageopacity="0.0"
     borderopacity="1.0"
     bordercolor="#666666"
     pagecolor="#ffffff"
     id="base"
     inkscape:zoom="0.7039489"
     inkscape:cx="133.7555"
     inkscape:cy="522.96436"
     inkscape:window-x="0"
     inkscape:window-y="0"
     inkscape:current-layer="svg2"
     showgrid="false"
     inkscape:window-maximized="1" />
  <defs
     id="defs4" />
  <g
     id="layer1"
     transform="matrix(-1,0,0,1,399.47072,148.08587)">
    <g
       transform="matrix(2,0,0,2,-483.316,-485.5179)"
       id="g4895">
      <path
         d="m 379.28571,288.79075 c -24.64286,1.96429 -60.71428,7.14286 -60.71428,7.14286 -116.47508,21.61333 -90.602,106.39255 2.14286,100.71429 l 35,-2.14286 c 49.06353,-3.00389 56.29457,40.35818 0,44.28571 L 325,440.93361 c -98.17633,6.84952 -75.74763,95.58692 2.14286,88.57143 l 26.672,-2.40231 c 59.08199,-5.32143 40.68448,23.581 7.2742,37.45034 -13.51633,5.61093 -24.98465,8.52965 -38.19894,14.87644 -13.7766,6.61688 -31.42858,23.57143 -31.42858,23.57143 -13.72384,18.19281 5.41838,10.42326 17.82417,4.72132 5.82437,-2.677 12.30641,-9.09506 23.37784,-14.4522 11.07143,-5.35714 4.46609,-1.8281 29.89735,-10.63876 67.64618,-23.43602 69.31929,-78.27024 -6.84661,-74.55483 l -29.28572,1.42857 c -40.92506,1.99634 -58.43847,-43.64096 0,-45 l 30.71429,-0.71429 C 443.82508,460.82712 445.45932,365.98163 355,373.07647 l -36.42857,2.85714 c -44.40707,3.4829 -83.06085,-31.86959 0.71428,-54.28571 0,0 20.39345,-2.30641 36.64345,-2.66355 16.25,-0.35715 13.71369,0.16354 28.35655,1.23497 14.64286,1.07143 20.69724,10.89905 30.71429,5.71429 23.62552,-12.2284 43.00437,-12.96553 2.14286,-37.85714 -10.90464,-6.64278 -13.21429,-1.25001 -37.85715,0.71428 z"
         style="fill:#000000;fill-opacity:1;fill-rule:evenodd;stroke:#000000;stroke-width:1px;stroke-linecap:butt;stroke-linejoin:miter;stroke-opacity:1"
         id="path1364"
         inkscape:connector-curvature="0"
         sodipodi:nodetypes="scsssssssscsssssscsscsssss" />
    </g>
  </g>
  <g
     aria-label="*"
     style="font-style:normal;font-weight:normal;font-size:82.81240845px;line-height:1.25;font-family:sans-serif;letter-spacing:0px;word-spacing:0px;fill:#000000;fill-opacity:1;stroke:none;stroke-width:2.07031059"
     id="text828"
     transform="matrix(1.3701636,0,0,1.3701636,-70.951096,76.370002)">
    <path
       d="m 206.08042,-55.737871 q -1.94092,19.409159 -2.91137,32.607387 -0.77637,13.004136 -0.97046,25.6200893 10.86913,-6.9872972 21.54416,-14.7509603 10.67504,-7.957756 26.00828,-20.185526 l 13.58641,24.261449 q -17.66234,8.15184666 -29.50192,14.1686859 -11.83959,6.0168391 -22.90281,12.0336781 11.4514,6.01684 23.67917,11.063221 12.42186,5.046381 30.66647,12.22777 l -14.55687,24.261448 q -15.91551,-11.451403 -26.78463,-18.4387 -10.86913,-6.987298 -21.73826,-13.586412 0.58227,12.810045 1.74682,25.814182 1.16455,13.004136 4.07592,32.413295 h -27.17282 q 1.74683,-19.409159 2.71728,-32.607387 0.97046,-13.198228 1.16455,-25.62009 -10.67503,6.599114 -21.54416,14.750961 -10.67504,8.151847 -26.00827,20.185525 L 123.59149,44.219297 q 17.66234,-7.957755 29.50193,-13.974595 11.83958,-6.016839 22.9028,-12.22777 -11.25731,-6.016839 -23.67917,-11.0632202 -12.42186,-5.0463813 -30.66647,-12.22777 l 14.55687,-24.2614488 q 15.91551,11.257312 26.78464,18.438701 11.06322,7.1813889 21.73825,13.5864113 -0.38818,-12.6159533 -2.32909,-25.6200893 -1.74683,-13.198228 -4.46411,-32.607387 z"
       style="font-style:normal;font-variant:normal;font-weight:normal;font-stretch:normal;font-size:397.49957275px;font-family:Andika;-inkscape-font-specification:Andika;stroke-width:2.07031059"
       id="path830"
       inkscape:connector-curvature="0" />
  </g>
</svg>
